<svg width="603px" height="53px" style="width: 100%" viewBox="0 0 603 53" version="1.1" xmlns="http://www.w3.org/2000/svg" xmlns:xlink="http://www.w3.org/1999/xlink">
				<!-- Generator: Sketch 46.2 (44496) - http://www.bohemiancoding.com/sketch -->
				<desc>Created with Sketch.</desc>
				<defs></defs>
				<g id="Symbols" stroke="none" stroke-width="1" fill="none" fill-rule="evenodd">
					<g id="UO-Logo-/-Light,-Pink">
						<g id="Group-33">
							<g id="UO_ShapeLogo_RGBHorizontal_orange">
								<polygon id="Fill-1" fill="#FFFFFF" points="438.022399 51.026814 454.76932 51.026814 454.76932 4.50744768 438.022399 4.50744768"></polygon>
								<g id="Group-34" transform="translate(0.000000, 0.494288)">
									<path d="M293.01258,34.4690638 C289.038659,34.4690638 285.816612,31.2470172 285.816612,27.2724635 C285.816612,23.2985427 289.038659,20.076496 293.01258,20.076496 C296.987133,20.076496 300.20918,23.2985427 300.20918,27.2724635 C300.20918,31.2470172 296.987133,34.4690638 293.01258,34.4690638 M293.01258,2.98211777 C279.597195,2.98211777 268.721601,13.857079 268.721601,27.2724635 C268.721601,40.6884809 279.597195,51.564075 293.01258,51.564075 C306.428597,51.564075 317.303558,40.6884809 317.303558,27.2724635 C317.303558,13.857079 306.428597,2.98211777 293.01258,2.98211777" id="Fill-2" fill="#FFFFFF"></path>
									<polygon id="Fill-4" fill="#FFFFFF" points="359.379589 4.01303346 352.138053 27.2869567 348.928031 27.2869567 341.685863 4.01303346 321.248556 4.01303346 321.248556 50.5323998 336.199966 50.5323998 336.199966 33.7854785 339.410621 33.7854785 344.670575 50.5241722 344.67374 50.5241722 356.391712 50.5241722 356.395509 50.5241722 361.656729 33.7854785 364.866118 33.7854785 364.866118 50.5323998 379.817529 50.5323998 379.817529 4.01303346"></polygon>
									<polygon id="Fill-6" fill="#FFFFFF" points="431.514954 4.01303346 414.835752 4.01303346 414.835752 20.9466575 411.62573 20.9466575 403.004493 4.01303346 386.325291 4.01303346 386.325291 50.5323998 403.004493 50.5323998 403.004493 33.7854785 406.213881 33.7854785 414.835752 50.5323998 414.835752 50.5323998 431.514954 50.5323998"></polygon>
									<path d="M486.511511,38.9298674 L477.361177,38.9298674 L477.361177,32.9737329 L486.511511,32.9737329 C488.156394,32.9737329 489.489262,34.3072337 489.489262,35.9514837 C489.489262,37.5963667 488.156394,38.9298674 486.511511,38.9298674 L486.511511,38.9298674 Z M477.361177,16.1173216 L485.626097,16.1173216 C487.270347,16.1173216 488.603848,17.4508223 488.603848,19.0957053 C488.603848,20.7399554 487.270347,22.0734561 485.626097,22.0734561 L477.361177,22.0734561 L477.361177,16.1173216 Z M499.40666,26.1075015 C502.919203,24.077821 505.288746,20.1925049 505.288746,15.8439128 C505.288746,9.3586816 500.031323,4.01328661 493.546725,4.01328661 L461.276893,4.01328661 L461.276893,50.532653 L493.546725,50.532653 C500.682567,50.532653 506.467188,44.7473989 506.467188,37.612189 C506.467188,32.5883025 503.593865,28.2441406 499.40666,26.1075015 L499.40666,26.1075015 Z" id="Fill-8" fill="#FFFFFF"></path>
									<path d="M583.089495,36.0138868 C582.933171,34.275336 578.285855,34.0823043 575.327724,33.5247276 C566.774206,31.9114891 558.504223,27.279362 558.397264,18.4062341 C558.292837,9.78879414 565.500197,2.99661097 580.223766,2.99661097 C589.853831,2.99661097 598.595951,6.80408152 603.002136,11.0552085 L592.894238,21.1624732 C589.957626,18.7733107 585.831811,17.3050043 582.357874,17.0151403 C579.645304,16.7891984 577.825743,17.4379113 577.689039,18.6923007 C577.451072,20.8700777 583.689476,21.1517141 588.519698,22.1295302 C597.292829,23.9047887 602.674299,28.9729775 602.42937,36.2708404 C602.160391,44.2674146 595.162519,51.5640117 578.828875,51.5640117 C568.067201,51.5640117 559.392801,47.8375511 554.904973,42.9174587 L565.297039,32.4538765 C568.229854,34.8924044 573.175895,37.639783 578.451672,37.9302798 C581.306642,38.0872367 583.212276,37.3802978 583.089495,36.0138868" id="Fill-10" fill="#FFFFFF"></path>
									<path d="M537.21264,4.01303346 L537.21264,29.7970013 C537.21264,32.5937453 534.944992,34.8613928 532.148248,34.8613928 C529.350871,34.8613928 527.083224,32.5937453 527.083224,29.7970013 L527.083224,4.01303346 L509.940746,4.01303346 L509.940746,30.1925579 C509.940746,42.6244303 519.883459,51.5640117 532.148248,51.5640117 C544.412405,51.5640117 554.355118,42.6244303 554.355118,30.1925579 L554.355118,4.01303346 L537.21264,4.01303346 Z" id="Fill-12" fill="#FFFFFF"></path>
									<path d="M313.61216,24.7210278 C313.61216,38.1364124 302.736566,49.0120064 289.321181,49.0120064 C275.905164,49.0120064 265.030203,38.1364124 265.030203,24.7210278 C265.030203,11.3056433 275.905164,0.430049242 289.321181,0.430049242 C302.736566,0.430049242 313.61216,11.3056433 313.61216,24.7210278" id="Fill-14" fill="#E7C4B3" style="mix-blend-mode: multiply;"></path>
									<path d="M506.753192,27.2727166 C506.753192,39.5375058 516.695905,49.4795861 528.960694,49.4795861 C541.22485,49.4795861 551.167564,39.5375058 551.167564,27.2727166 L506.753192,27.2727166 Z" id="Fill-16" fill="#E7C4B3" style="mix-blend-mode: multiply;"></path>
									<polygon id="Fill-18" fill="#E7C4B3" style="mix-blend-mode: multiply;" points="382.466619 47.980711 399.21354 47.980711 399.21354 1.46197756 382.466619 1.46197756"></polygon>
									<path d="M171.668759,31.2628394 L176.762263,22.4403428 L181.855768,31.2628394 L171.668759,31.2628394 Z M185.080979,4.00170471 L168.442915,4.00170471 L152.471285,31.6640922 L152.471285,50.5210711 L169.150487,50.5210711 L169.150487,44.1016605 L184.37404,44.1016605 L184.37404,50.5210711 L201.053242,50.5210711 L201.053242,31.6640922 L185.080979,4.00170471 Z" id="Fill-20" fill="#FFFFFF"></path>
									<path d="M79.0683663,25.001968 L70.695855,25.001968 L70.695855,17.5572745 L79.0683663,17.5572745 C81.13159,17.5572745 82.7910295,19.2243087 82.7910295,21.2799377 C82.7910295,23.3355668 81.1239953,25.001968 79.0683663,25.001968 M92.9641149,34.3288785 C97.022843,31.31442 99.5379507,26.3949605 99.5379507,20.948303 C99.5379507,11.5891151 91.9508568,4.00138827 82.5916689,4.00138827 L54.3482878,4.00138827 L54.3482878,50.5207546 L70.695855,50.5207546 L70.695855,37.8945848 L73.8679033,37.8945848 L81.2632313,50.5207546 L99.5379507,50.5207546 L90.7920339,35.588331 C90.7920339,35.588331 91.8344049,35.1680916 92.9641149,34.3288785" id="Fill-22" fill="#FFFFFF"></path>
									<polygon id="Fill-24" fill="#FFFFFF" points="250.720797 4.00157813 234.041595 4.00157813 234.041595 20.9352021 230.831573 20.9352021 222.210336 4.00157813 205.531134 4.00157813 205.531134 50.5209445 222.210336 50.5209445 222.210336 33.7740232 225.419724 33.7740232 234.041595 50.5209445 250.720797 50.5209445"></polygon>
									<path d="M129.25736,38.9180957 L120.107659,38.9180957 L120.107659,32.9619611 L129.25736,32.9619611 C130.902243,32.9619611 132.235743,34.2954619 132.235743,35.9403449 C132.235743,37.5852278 130.902243,38.9180957 129.25736,38.9180957 L129.25736,38.9180957 Z M120.107659,16.1061827 L128.371945,16.1061827 C130.016828,16.1061827 131.349696,17.4390505 131.349696,19.0839335 C131.349696,20.7288165 130.016828,22.0616843 128.371945,22.0616843 L120.107659,22.0616843 L120.107659,16.1061827 Z M142.152508,26.0957298 C145.665051,24.0660492 148.034594,20.1807331 148.034594,15.832141 C148.034594,9.34690984 142.777804,4.00151484 136.292573,4.00151484 L104.023374,4.00151484 L104.023374,50.5208812 L136.292573,50.5208812 C143.428416,50.5208812 149.213037,44.73626 149.213037,37.6004172 C149.213037,32.5765307 146.340346,28.2330017 142.152508,26.0957298 L142.152508,26.0957298 Z" id="Fill-26" fill="#FFFFFF"></path>
									<path d="M31.1769562,4.00189458 L31.1769562,29.7852295 C31.1769562,32.5819736 28.9093087,34.8502539 26.1119318,34.8502539 C23.3151877,34.8502539 21.0475402,32.5819736 21.0475402,29.7852295 L21.0475402,4.00189458 L3.9050623,4.00189458 L3.9050623,30.1814191 C3.9050623,42.6132914 13.8477755,51.5528728 26.1119318,51.5528728 C38.376721,51.5528728 48.3194341,42.6132914 48.3194341,30.1814191 L48.3194341,4.00189458 L31.1769562,4.00189458 Z" id="Fill-28" fill="#FFFFFF"></path>
									<polygon id="Fill-30" fill="#E7C4B3" style="mix-blend-mode: multiply;" points="181.422681 1.44469964 164.784617 1.44469964 148.812987 29.1070871 197.394311 29.1070871"></polygon>
									<path d="M0.482326015,1.45026908 L0.482326015,26.793112 C0.482326015,39.0579012 10.4244063,49.0006144 22.6898284,49.0006144 L22.6898284,1.45026908 L0.482326015,1.45026908 Z" id="Fill-32" fill="#E7C4B3" style="mix-blend-mode: multiply;"></path>
								</g>
							</g>
						</g>
					</g>
				</g>
			</svg>